<?xml version="1.0" encoding="utf-8"?>
<!-- Generator: Adobe Illustrator 27.5.0, SVG Export Plug-In . SVG Version: 6.00 Build 0)  -->
<svg version="1.1" id="Layer_1" xmlns="http://www.w3.org/2000/svg" xmlns:xlink="http://www.w3.org/1999/xlink" x="0px" y="0px"
	 viewBox="0 0 356 510" style="enable-background:new 0 0 356 510;" xml:space="preserve">
<g>
	<g>
		<polygon style="fill:#1B3F92;" points="224.902,302.262 203.222,302.262 158.123,302.262 136.443,302.262 100.885,503.755 
			158.123,503.755 203.222,503.755 260.461,503.755 		"/>
		<polygon style="fill:#163577;" points="237.005,370.837 224.902,302.262 136.443,302.262 124.342,370.837 		"/>
		<polygon style="fill:#163577;" points="109.741,453.566 100.885,503.755 260.461,503.755 251.605,453.566 		"/>
		<polygon style="opacity:0.5;fill:#163577;" points="224.902,302.262 178.719,302.262 178.719,503.755 260.461,503.755 		"/>
		<rect x="66.486" y="463.31" style="fill:#0067B2;" width="233.113" height="41.181"/>
		<rect x="66.486" y="484.475" style="fill:#153576;" width="233.113" height="20.017"/>
	</g>
	<g>
		<path style="fill:#1D1D1B;" d="M180.674,25.646c-45.179,0-87.653,17.593-119.599,49.539s-49.539,74.419-49.539,119.597
			c0,45.178,17.594,87.653,49.539,119.598c31.945,31.946,74.42,49.539,119.599,49.539c45.178,0,87.651-17.593,119.597-49.539
			c31.946-31.945,49.539-74.42,49.539-119.598c0-45.178-17.593-87.651-49.539-119.597C268.325,43.239,225.852,25.646,180.674,25.646
			L180.674,25.646z"/>
		
			<ellipse transform="matrix(0.7071 -0.7071 0.7071 0.7071 -84.8137 184.8056)" style="fill:#008DD0;" cx="180.673" cy="194.782" rx="161.416" ry="161.415"/>
		
			<ellipse transform="matrix(0.7071 -0.7071 0.7071 0.7071 -84.8137 184.8056)" style="fill:none;" cx="180.673" cy="194.782" rx="148.179" ry="148.179"/>
		
			<ellipse transform="matrix(0.7071 -0.7071 0.7071 0.7071 -84.8137 184.8056)" style="fill:#008DD0;" cx="180.673" cy="194.782" rx="161.416" ry="161.415"/>
		
			<ellipse transform="matrix(0.3784 -0.9256 0.9256 0.3784 -67.9935 288.3119)" style="fill:#0A477E;" cx="180.673" cy="194.782" rx="152.698" ry="152.698"/>
		
			<ellipse transform="matrix(0.7071 -0.7071 0.7071 0.7071 -84.8137 184.8056)" style="fill:#70C8DD;" cx="180.673" cy="194.782" rx="148.179" ry="148.179"/>
		<g>
			<path style="fill:#F2E6B5;" d="M254.761,66.432c-21.795-12.609-47.098-19.829-74.087-19.829v148.179L254.761,66.432z"/>
			<path style="fill:#70C8DD;" d="M180.674,46.604c-26.991,0-52.294,7.22-74.089,19.829l74.089,128.351V46.604z"/>
			<path style="fill:#E83A55;" d="M328.852,194.783c0-0.001,0-0.001,0-0.001c0-26.989-7.22-52.292-19.827-74.086l-128.351,74.087
				H328.852z"/>
			<path style="fill:#F6A000;" d="M106.585,66.432C84.09,79.445,65.334,98.2,52.321,120.695l128.353,74.087L106.585,66.432z"/>
			<path style="fill:#FFEC55;" d="M52.321,120.695c-12.607,21.794-19.827,47.097-19.827,74.086c0,0,0,0,0,0.001h148.18
				L52.321,120.695z"/>
			<path style="fill:#009A9A;" d="M309.024,120.695c-13.013-22.495-31.769-41.251-54.264-54.263l-74.087,128.351L309.024,120.695z"
				/>
			<path style="fill:#B14191;" d="M254.761,323.134c22.495-13.014,41.25-31.77,54.264-54.264l-128.351-74.087L254.761,323.134z"/>
			<path style="fill:#83C8B8;" d="M180.674,342.961c26.989,0,52.292-7.22,74.087-19.827l-74.087-128.351V342.961z"/>
			<path style="fill:#F6A000;" d="M180.674,194.783l128.351,74.087c12.607-21.795,19.827-47.098,19.827-74.087H180.674z"/>
			<path style="fill:#009DD0;" d="M52.321,268.87c13.013,22.494,31.77,41.251,54.264,54.264l74.089-128.351L52.321,268.87z"/>
			<path style="fill:#DE97BD;" d="M106.585,323.134c21.795,12.607,47.098,19.827,74.089,19.827V194.783L106.585,323.134z"/>
			<path style="fill:#E73186;" d="M32.494,194.783c0,26.99,7.22,52.292,19.827,74.087l128.353-74.087H32.494z"/>
		</g>
		<g>
			<path style="fill:#FFFFFF;" d="M181.776,47.711c25.103,0.188,49.768,6.788,71.477,19.127l-71.477,123.827V47.711L181.776,47.711z
				 M180.674,46.604v148.179l74.087-128.351C232.966,53.823,207.663,46.604,180.674,46.604L180.674,46.604z"/>
			<path style="fill:#FFFFFF;" d="M179.57,47.711v142.954L108.093,66.838C129.801,54.499,154.467,47.898,179.57,47.711
				L179.57,47.711z M180.674,46.604c-26.991,0-52.294,7.22-74.089,19.829l74.089,128.351V46.604L180.674,46.604z"/>
			<path style="fill:#FFFFFF;" d="M308.618,122.204c12.339,21.708,18.938,46.374,19.126,71.476H184.79L308.618,122.204
				L308.618,122.204z M309.024,120.695l-128.351,74.087h148.178c0-0.001,0-0.001,0-0.001
				C328.852,167.793,321.632,142.49,309.024,120.695L309.024,120.695z"/>
			<path style="fill:#FFFFFF;" d="M106.185,67.942L177.66,191.77L53.833,120.294C66.535,98.711,84.602,80.645,106.185,67.942
				L106.185,67.942z M106.585,66.432C84.09,79.445,65.334,98.2,52.321,120.695l128.353,74.087L106.585,66.432L106.585,66.432z"/>
			<path style="fill:#FFFFFF;" d="M52.728,122.204l123.826,71.476l-142.953-0.001C33.789,168.578,40.391,143.912,52.728,122.204
				L52.728,122.204z M52.321,120.695c-12.607,21.794-19.827,47.097-19.827,74.086c0,0,0,0,0,0.001h148.18L52.321,120.695
				L52.321,120.695z"/>
			<path style="fill:#FFFFFF;" d="M255.162,67.942c21.582,12.702,39.648,30.77,52.351,52.351L183.686,191.77L255.162,67.942
				L255.162,67.942z M254.761,66.432l-74.087,128.351l128.351-74.087C296.012,98.2,277.256,79.445,254.761,66.432L254.761,66.432z"
				/>
			<path style="fill:#FFFFFF;" d="M183.686,197.796l123.827,71.477c-12.702,21.58-30.77,39.646-52.351,52.35L183.686,197.796
				L183.686,197.796z M180.674,194.783l74.087,128.351c22.495-13.014,41.25-31.77,54.264-54.264L180.674,194.783L180.674,194.783z"
				/>
			<path style="fill:#FFFFFF;" d="M181.776,198.901l71.477,123.827c-21.709,12.339-46.374,18.938-71.477,19.126V198.901
				L181.776,198.901z M180.674,194.783v148.178c26.989,0,52.292-7.22,74.087-19.827L180.674,194.783L180.674,194.783z"/>
			<path style="fill:#FFFFFF;" d="M327.744,195.886c-0.188,25.103-6.787,49.768-19.126,71.477L184.79,195.886H327.744
				L327.744,195.886z M328.852,194.783H180.674l128.351,74.087C321.632,247.075,328.852,221.773,328.852,194.783L328.852,194.783z"
				/>
			<path style="fill:#FFFFFF;" d="M177.66,197.796l-71.476,123.826c-21.583-12.702-39.649-30.768-52.352-52.35L177.66,197.796
				L177.66,197.796z M180.674,194.783L52.321,268.87c13.013,22.494,31.77,41.251,54.264,54.264L180.674,194.783L180.674,194.783z"/>
			<path style="fill:#FFFFFF;" d="M179.57,198.901v142.953c-25.104-0.188-49.768-6.787-71.478-19.126L179.57,198.901L179.57,198.901
				z M180.674,194.783l-74.089,128.351c21.795,12.607,47.098,19.827,74.089,19.827V194.783L180.674,194.783z"/>
			<path style="fill:#FFFFFF;" d="M176.555,195.886L52.728,267.362c-12.338-21.709-18.939-46.374-19.127-71.477H176.555
				L176.555,195.886z M180.674,194.783H32.494c0,26.99,7.22,52.292,19.827,74.087L180.674,194.783L180.674,194.783z"/>
		</g>
		<g>
			<path style="fill:#706F6F;" d="M241.617,194.896c0,33.659-27.287,60.945-60.943,60.945c-33.659,0-60.945-27.287-60.945-60.945
				c0-33.658,27.286-60.943,60.945-60.943C214.33,133.953,241.617,161.238,241.617,194.896z"/>
			<path style="fill:none;" d="M237.664,194.782c0,31.475-25.517,56.992-56.99,56.992c-31.477,0-56.991-25.517-56.991-56.992
				s25.515-56.991,56.991-56.991C212.148,137.791,237.664,163.307,237.664,194.782z"/>
			<path style="fill:none;" d="M222.59,194.782c0,23.15-18.768,41.917-41.916,41.917c-23.15,0-41.917-18.767-41.917-41.917
				c0-23.149,18.767-41.917,41.917-41.917C203.822,152.865,222.59,171.632,222.59,194.782z"/>
			<path style="fill:#1D3B79;" d="M237.664,194.782c0,31.475-25.517,56.992-56.99,56.992c-31.477,0-56.991-25.517-56.991-56.992
				s25.515-56.991,56.991-56.991C212.148,137.791,237.664,163.307,237.664,194.782z"/>
			<path style="fill:#00549C;" d="M237.606,197.103c0.03-0.771,0.058-1.543,0.058-2.321c0-31.475-25.517-56.991-56.99-56.991
				c-31.477,0-56.991,25.516-56.991,56.991c0,0.778,0.026,1.55,0.058,2.321H237.606z"/>
			<path style="fill:#241954;" d="M225.899,194.782c0,24.978-20.25,45.227-45.226,45.227c-24.979,0-45.227-20.249-45.227-45.227
				c0-24.976,20.248-45.225,45.227-45.225C205.649,149.556,225.899,169.806,225.899,194.782z"/>
			<path style="fill:#6B9ED5;" d="M222.59,194.782c0,23.15-18.768,41.917-41.916,41.917c-23.15,0-41.917-18.767-41.917-41.917
				c0-23.149,18.767-41.917,41.917-41.917C203.822,152.865,222.59,171.632,222.59,194.782z"/>
			<g>
				<g>
					<g>
						<polygon style="fill:#F9B105;" points="181.559,160.024 191.338,179.841 213.207,183.018 197.383,198.442 201.119,220.224 
							181.559,209.94 162,220.224 165.735,198.442 149.91,183.018 171.78,179.841 						"/>
					</g>
				</g>
				<g style="opacity:0.4;">
					<polygon style="fill:#F39700;" points="181.559,193.302 181.559,193.302 181.559,193.302 					"/>
					<rect x="181.558" y="193.3" style="fill:#F39700;" width="0.001" height="0.001"/>
					<rect x="181.558" y="193.301" style="fill:#F39700;" width="0" height="0"/>
					<polygon style="fill:#D95915;" points="191.338,179.841 181.559,160.024 181.559,193.3 					"/>
					<polygon style="fill:#F39700;" points="181.559,193.302 181.559,193.302 181.559,193.302 					"/>
					<rect x="181.558" y="193.301" style="fill:#F39700;" width="0" height="0"/>
					<polygon style="fill:#F39700;" points="181.559,193.302 181.559,193.302 181.559,193.302 					"/>
					<polygon style="fill:#D95915;" points="181.559,193.301 181.559,193.302 197.383,198.442 213.207,183.018 					"/>
					<polygon style="fill:#D95915;" points="181.559,209.94 201.119,220.224 181.559,193.302 					"/>
					<polygon style="fill:#D95915;" points="165.735,198.442 162,220.224 181.559,193.302 					"/>
					<polygon style="fill:#D95915;" points="181.559,193.301 171.78,179.841 149.91,183.018 181.559,193.302 					"/>
				</g>
				<polygon style="opacity:0.5;fill:#FFFFFF;" points="181.26,161.274 180.718,184.279 181.393,192.561 181.371,187.338 				"/>
				<polygon style="opacity:0.5;fill:#FFFFFF;" points="182.52,192.561 211.96,183.107 190.532,189.411 				"/>
				<polygon style="opacity:0.5;fill:#FFFFFF;" points="182.249,193.792 200.617,218.852 188.912,201.835 				"/>
				<polygon style="opacity:0.5;fill:#FFFFFF;" points="181.23,194.153 163.432,219.122 175.946,202.646 				"/>
				<polygon style="opacity:0.5;fill:#FFFFFF;" points="151.639,183.828 180.628,193.282 172.254,191.391 				"/>
			</g>
			<path style="fill:#008FCD;" d="M124.581,195.725c0,0,2.481-44.583,42.192-54.142c0,0,26.473-7.721,45.226,8.089
				C211.999,149.671,144.16,118.234,124.581,195.725z"/>
			<path style="opacity:0.6;fill:#F0F8FD;" d="M177.252,156.014c0,0-20.958,1.654-32.54,24.267c0,0-12.134,25.646,12.685,46.605
				c0,0-11.571-16.472,0.552-36.677c13.237-22.061,43.847-25.095,57.636-15.719C215.584,174.49,203.174,152.705,177.252,156.014z"/>
		</g>
	</g>
	<polygon style="fill:#706F6F;" points="179.715,32.379 160.088,32.379 180.674,92.864 201.259,32.379 	"/>
	<g>
		<polygon style="fill:#E53818;" points="180.674,86.245 158.523,21.164 202.823,21.164 		"/>
		<polygon style="fill:#AC2E0F;" points="180.674,86.245 179.643,21.164 202.823,21.164 		"/>
		<polygon style="fill:#E85045;" points="160.982,23.922 178.906,77.421 177.528,68.044 		"/>
	</g>
	<g>
		<g>
			<path style="fill:#F29700;" d="M82.264,482.593c0,4.036-3.271,7.308-7.308,7.308c-4.035,0-7.308-3.271-7.308-7.308
				c0-4.036,3.272-7.309,7.308-7.309C78.993,475.284,82.264,478.557,82.264,482.593z"/>
			<path style="fill:#F9B105;" d="M79.255,481.794c0,2.917-2.364,5.282-5.281,5.282c-2.916,0-5.28-2.365-5.28-5.282
				c0-2.916,2.364-5.281,5.28-5.281C76.891,476.513,79.255,478.878,79.255,481.794z"/>
			<path style="opacity:0.5;fill:#FFFFFF;" d="M75.555,479.691c0,1.348-1.092,2.441-2.441,2.441c-1.348,0-2.44-1.094-2.44-2.441
				c0-1.349,1.093-2.441,2.44-2.441C74.463,477.25,75.555,478.343,75.555,479.691z"/>
		</g>
		<g>
			<path style="fill:#F29700;" d="M117.642,482.593c0,4.036-3.271,7.308-7.308,7.308c-4.035,0-7.309-3.271-7.309-7.308
				c0-4.036,3.273-7.309,7.309-7.309C114.371,475.284,117.642,478.557,117.642,482.593z"/>
			<path style="fill:#F9B105;" d="M114.633,481.794c0,2.917-2.364,5.282-5.281,5.282c-2.918,0-5.282-2.365-5.282-5.282
				c0-2.916,2.364-5.281,5.282-5.281C112.269,476.513,114.633,478.878,114.633,481.794z"/>
			<path style="opacity:0.5;fill:#FFFFFF;" d="M110.933,479.691c0,1.348-1.094,2.441-2.441,2.441c-1.349,0-2.44-1.094-2.44-2.441
				c0-1.349,1.092-2.441,2.44-2.441C109.839,477.25,110.933,478.343,110.933,479.691z"/>
		</g>
		<g>
			<path style="fill:#F29700;" d="M153.02,482.593c0,4.036-3.273,7.308-7.309,7.308c-4.035,0-7.308-3.271-7.308-7.308
				c0-4.036,3.272-7.309,7.308-7.309C149.746,475.284,153.02,478.557,153.02,482.593z"/>
			<path style="fill:#F9B105;" d="M150.01,481.794c0,2.917-2.365,5.282-5.281,5.282c-2.917,0-5.282-2.365-5.282-5.282
				c0-2.916,2.365-5.281,5.282-5.281C147.645,476.513,150.01,478.878,150.01,481.794z"/>
			<path style="opacity:0.5;fill:#FFFFFF;" d="M146.311,479.691c0,1.348-1.094,2.441-2.441,2.441c-1.349,0-2.44-1.094-2.44-2.441
				c0-1.349,1.092-2.441,2.44-2.441C145.217,477.25,146.311,478.343,146.311,479.691z"/>
		</g>
		<g>
			<path style="fill:#F29700;" d="M188.396,482.593c0,4.036-3.273,7.308-7.308,7.308c-4.035,0-7.308-3.271-7.308-7.308
				c0-4.036,3.272-7.309,7.308-7.309C185.124,475.284,188.396,478.557,188.396,482.593z"/>
			<path style="fill:#F9B105;" d="M185.387,481.794c0,2.917-2.363,5.282-5.28,5.282c-2.917,0-5.282-2.365-5.282-5.282
				c0-2.916,2.365-5.281,5.282-5.281C183.023,476.513,185.387,478.878,185.387,481.794z"/>
			<circle style="opacity:0.5;fill:#FFFFFF;" cx="179.246" cy="479.691" r="2.441"/>
		</g>
		<g>
			<path style="fill:#F29700;" d="M223.774,482.593c0,4.036-3.272,7.308-7.308,7.308c-4.036,0-7.308-3.271-7.308-7.308
				c0-4.036,3.271-7.309,7.308-7.309C220.502,475.284,223.774,478.557,223.774,482.593z"/>
			<path style="fill:#F9B105;" d="M220.765,481.794c0,2.917-2.364,5.282-5.28,5.282c-2.917,0-5.282-2.365-5.282-5.282
				c0-2.916,2.365-5.281,5.282-5.281C218.4,476.513,220.765,478.878,220.765,481.794z"/>
			<circle style="opacity:0.5;fill:#FFFFFF;" cx="214.625" cy="479.691" r="2.441"/>
		</g>
		<g>
			<path style="fill:#F29700;" d="M259.151,482.593c0,4.036-3.271,7.308-7.308,7.308c-4.036,0-7.308-3.271-7.308-7.308
				c0-4.036,3.271-7.309,7.308-7.309C255.88,475.284,259.151,478.557,259.151,482.593z"/>
			<path style="fill:#F9B105;" d="M256.143,481.794c0,2.917-2.365,5.282-5.282,5.282c-2.916,0-5.28-2.365-5.28-5.282
				c0-2.916,2.364-5.281,5.28-5.281C253.777,476.513,256.143,478.878,256.143,481.794z"/>
			<path style="opacity:0.5;fill:#FFFFFF;" d="M252.442,479.691c0,1.348-1.093,2.441-2.44,2.441c-1.348,0-2.441-1.094-2.441-2.441
				c0-1.349,1.094-2.441,2.441-2.441C251.35,477.25,252.442,478.343,252.442,479.691z"/>
		</g>
		<g>
			<path style="fill:#F29700;" d="M294.53,482.593c0,4.036-3.272,7.308-7.308,7.308c-4.037,0-7.308-3.271-7.308-7.308
				c0-4.036,3.27-7.309,7.308-7.309C291.258,475.284,294.53,478.557,294.53,482.593z"/>
			<path style="fill:#F9B105;" d="M291.521,481.794c0,2.917-2.365,5.282-5.28,5.282c-2.918,0-5.283-2.365-5.283-5.282
				c0-2.916,2.365-5.281,5.283-5.281C289.155,476.513,291.521,478.878,291.521,481.794z"/>
			<path style="opacity:0.5;fill:#FFFFFF;" d="M287.82,479.691c0,1.348-1.094,2.441-2.441,2.441c-1.348,0-2.44-1.094-2.44-2.441
				c0-1.349,1.093-2.441,2.44-2.441C286.727,477.25,287.82,478.343,287.82,479.691z"/>
		</g>
	</g>
	<g>
		<g>
			<g>
				<polygon style="fill:#F9B105;" points="178.906,3.216 184.334,14.215 196.473,15.979 187.69,24.539 189.763,36.63 
					178.906,30.923 168.051,36.63 170.123,24.539 161.34,15.979 173.48,14.215 				"/>
			</g>
		</g>
		<g style="opacity:0.4;">
			<polygon style="fill:#F39700;" points="178.906,21.686 178.906,21.686 178.906,21.686 			"/>
			<rect x="178.906" y="21.686" style="fill:#F39700;" width="0" height="0"/>
			<rect x="178.906" y="21.686" style="fill:#F39700;" width="0" height="0"/>
			<polygon style="fill:#D95915;" points="184.334,14.215 178.906,3.216 178.906,21.686 			"/>
			<polygon style="fill:#F39700;" points="178.906,21.686 178.906,21.686 178.906,21.686 			"/>
			<rect x="178.906" y="21.686" style="fill:#F39700;" width="0" height="0"/>
			<polygon style="fill:#F39700;" points="178.906,21.686 178.906,21.686 178.906,21.686 			"/>
			<polygon style="fill:#D95915;" points="178.906,21.686 178.906,21.686 187.69,24.539 196.473,15.979 			"/>
			<polygon style="fill:#D95915;" points="178.906,30.923 189.763,36.63 178.906,21.686 			"/>
			<polygon style="fill:#D95915;" points="170.123,24.539 168.051,36.63 178.906,21.686 			"/>
			<polygon style="fill:#D95915;" points="178.906,21.686 173.48,14.215 161.34,15.979 178.906,21.686 			"/>
		</g>
		<polygon style="opacity:0.5;fill:#FFFFFF;" points="178.74,3.91 178.439,16.679 178.814,21.275 178.801,18.377 		"/>
		<polygon style="opacity:0.5;fill:#FFFFFF;" points="179.439,21.275 195.78,16.028 183.887,19.527 		"/>
		<polygon style="opacity:0.5;fill:#FFFFFF;" points="179.29,21.958 189.485,35.869 182.987,26.423 		"/>
		<polygon style="opacity:0.5;fill:#FFFFFF;" points="178.724,22.159 168.845,36.018 175.791,26.874 		"/>
		<polygon style="opacity:0.5;fill:#FFFFFF;" points="162.298,16.427 178.39,21.676 173.74,20.626 		"/>
	</g>
</g>
</svg>
